<?xml version="1.0" encoding="UTF-8"?>
<svg version="1.1" xmlns="http://www.w3.org/2000/svg" width="1024" height="1024">
<path d="M0 0 C337.92 0 675.84 0 1024 0 C1024 337.92 1024 675.84 1024 1024 C686.08 1024 348.16 1024 0 1024 C0 686.08 0 348.16 0 0 Z " fill="#FDFCFC" transform="translate(0,0)"/>
<path d="M0 0 C191.4 0 382.8 0 580 0 C580 9.9 580 19.8 580 30 C578.07742611 31.92257389 575.20028171 31.12409846 572.64143094 31.13100848 C571.71514195 31.12838146 570.78885295 31.12575445 569.83449459 31.12304783 C568.85577238 31.12420167 567.87705018 31.12535552 566.86866972 31.12654433 C563.54531875 31.12921924 560.22201496 31.12468169 556.89866638 31.12025452 C554.5095438 31.12069004 552.12042126 31.1215646 549.73129898 31.12284368 C544.51433901 31.12462134 539.29738928 31.12326394 534.08043098 31.11920547 C526.3229219 31.11318731 518.56542003 31.1128681 510.80790904 31.11374746 C497.76054739 31.11506352 484.71319079 31.11171177 471.66583061 31.10573006 C458.74113375 31.09981972 445.816439 31.09596546 432.8917408 31.09487724 C431.68780173 31.09477413 431.68780173 31.09477413 430.45954066 31.09466894 C426.38366362 31.09433062 422.30778657 31.09402923 418.23190952 31.09374207 C389.337629 31.09163981 360.44335123 31.0848973 331.54907227 31.07543945 C303.47290054 31.06625998 275.39672957 31.05917394 247.32055664 31.05493164 C246.45562979 31.05480011 245.59070295 31.05466859 244.6995662 31.05453308 C236.01387727 31.05321459 227.32818833 31.05193877 218.64249939 31.05069422 C200.94762508 31.04815778 183.25275082 31.04533653 165.55787659 31.04234314 C164.74423579 31.04220585 163.93059499 31.04206856 163.09229842 31.04192711 C108.72819777 31.03272131 54.36409876 31.01679884 0 31 C0 20.77 0 10.54 0 0 Z " fill="#126EE6" transform="translate(222,235)"/>
<path d="M0 0 C61.29841716 -0.26308334 120.3534084 4.77778863 180.16558838 18.4467926 C199.75799611 22.92228656 219.40463264 26.86086012 239.3125 29.625 C240.19566895 29.7482666 241.07883789 29.8715332 241.98876953 29.99853516 C252.36659933 31.39447394 262.6972073 32.1545605 273.16796875 32.203125 C274.19357407 32.21018463 275.21917938 32.21724426 276.27586365 32.22451782 C322.66918333 32.47081493 365.59924705 25.95937244 410.82501221 16.13363647 C429.15172304 12.15767777 447.40962046 8.51461011 466 6 C466.85819336 5.87979492 467.71638672 5.75958984 468.60058594 5.63574219 C477.38549177 4.41970173 486.17025579 3.71667912 495.02856445 3.34082031 C497.84885934 3.21617349 500.57859368 3.08904495 503.34545898 2.50439453 C508.91582381 1.44595861 514.65610465 1.59693982 520.3125 1.4375 C521.36907303 1.40573166 521.36907303 1.40573166 522.44699097 1.37332153 C541.2947317 0.81623896 560.1463096 0.91266947 579 1 C579 10.9 579 20.8 579 31 C575.51953125 31.04898437 572.0390625 31.09796875 568.453125 31.1484375 C508.49845461 32.04351405 451.57557431 37.14303298 393.04910278 50.50238037 C380.51104664 53.35123662 367.91987648 55.75194486 355.25 57.9375 C354.3981311 58.08711182 353.54626221 58.23672363 352.6685791 58.39086914 C331.82632424 62.03029807 311.17922385 62.27564742 290.0625 62.3125 C289.03010822 62.31488867 289.03010822 62.31488867 287.97686005 62.31732559 C266.74855687 62.35900212 245.9406565 61.8087849 225 58 C223.78280273 57.78037598 222.56560547 57.56075195 221.31152344 57.33447266 C217.20337845 56.57733138 213.10073469 55.79611561 209 55 C208.22960388 54.8506601 207.45920776 54.70132019 206.66546631 54.54745483 C194.84827366 52.24584438 183.09200978 49.7191516 171.34603882 47.08044434 C144.35681061 41.04596421 117.53187072 37.08124353 90.05078125 34.05078125 C89.23167267 33.95930313 88.41256409 33.86782501 87.56863403 33.77357483 C75.40536116 32.45192409 63.30434381 31.82899883 51.07421875 31.68359375 C49.5906373 31.66295855 48.10706086 31.64196071 46.62348938 31.62062073 C42.76527017 31.56607645 38.90700407 31.51637622 35.04870605 31.46777344 C30.39446266 31.40810057 25.74030279 31.34225432 21.08612823 31.27747345 C14.05747089 31.18031835 7.02875385 31.09088072 0 31 C0 20.77 0 10.54 0 0 Z " fill="#F85A63" transform="translate(222,293)"/>
<path d="M0 0 C52.62407036 -0.67760788 102.07547006 6.76336784 149 32 C149.8465918 32.45133301 150.69318359 32.90266602 151.56542969 33.36767578 C160.7893609 38.29501725 169.95906545 43.28167234 178.875 48.75 C185.72476031 52.94340584 192.7897846 56.57402474 200.02685547 60.05029297 C201.96241807 60.9819112 203.88947242 61.92959701 205.81640625 62.87890625 C214.34795453 67.02995839 222.91268484 70.22332037 232 73 C233.0828125 73.34804688 234.165625 73.69609375 235.28125 74.0546875 C250.31771809 78.67303127 266.2732714 81.58839533 282 82 C282.71236816 82.02578125 283.42473633 82.0515625 284.15869141 82.078125 C303.38306819 82.72283267 322.56041246 80.57748084 341 75 C342.2996167 74.61183105 342.2996167 74.61183105 343.62548828 74.21582031 C369.48813159 66.36521516 392.57487873 54.30549752 416 41 C435.80749117 29.75924876 456.09636053 19.50530783 478 13 C479.32728134 12.58087605 480.65408584 12.1602398 481.98046875 11.73828125 C496.22260733 7.28521366 510.76646064 4.57142757 525.5 2.3125 C526.27577393 2.19310059 527.05154785 2.07370117 527.85083008 1.95068359 C540.00014651 0.17260933 551.99993912 -0.13308635 564.25 -0.0625 C565.78515478 -0.05747043 567.32031116 -0.05291012 568.85546875 -0.04882812 C572.5703467 -0.03794839 576.28516259 -0.02076577 580 0 C580.02465881 3.96930989 580.04284023 7.93859034 580.05493164 11.90795898 C580.05997057 13.25920386 580.06680177 14.61044326 580.07543945 15.96166992 C580.08752419 17.90020434 580.09269828 19.838778 580.09765625 21.77734375 C580.10289307 22.94515381 580.10812988 24.11296387 580.11352539 25.31616211 C580 28 580 28 579 29 C576.52898615 29.11156816 574.08152883 29.162366 571.609375 29.17578125 C570.03050225 29.19576329 568.4516447 29.21697523 566.87280273 29.23925781 C565.61969803 29.25599548 565.61969803 29.25599548 564.34127808 29.27307129 C511.88899596 30.07118165 465.62540133 44.30660907 420.38964844 70.51220703 C400.73901453 81.87765205 380.64908638 92.91256371 359 100 C358.25008789 100.24943359 357.50017578 100.49886719 356.72753906 100.75585938 C338.964267 106.59287778 320.25460287 111.13970762 301.46875 111.16796875 C300.27747498 111.17296135 300.27747498 111.17296135 299.06213379 111.17805481 C297.38810804 111.18308804 295.71407237 111.18546426 294.04003906 111.18530273 C291.53432734 111.18747031 289.02907052 111.20561235 286.5234375 111.22460938 C271.31382948 111.28070253 257.02848046 109.63108643 242.25 105.8125 C241.04118164 105.50280273 239.83236328 105.19310547 238.58691406 104.87402344 C209.21775442 97.18302833 182.59688711 84.17125485 156.73046875 68.41015625 C112.77687795 41.70702433 66.86618382 30.50849154 15.79711914 29.44775391 C13.38156199 29.39629378 10.96619346 29.33905987 8.55078125 29.28125 C7.80613113 29.26767456 7.06148102 29.25409912 6.29426575 29.2401123 C1.11309757 29.11309757 1.11309757 29.11309757 0 28 C-0.08767112 25.92737924 -0.10695873 23.85179706 -0.09765625 21.77734375 C-0.09443359 20.51728516 -0.09121094 19.25722656 -0.08789062 17.95898438 C-0.07953403 16.61848891 -0.07106907 15.27799412 -0.0625 13.9375 C-0.0574866 12.59310058 -0.05292342 11.2486994 -0.04882812 9.90429688 C-0.03699488 6.60282059 -0.02050971 3.30143197 0 0 Z " fill="#FDAE05" transform="translate(222,414)"/>
<path d="M0 0 C33.21461433 -0.4332341 66.55977486 0.47768862 99.31396484 6.50585938 C101.84762068 6.9719673 104.3850099 7.40286551 106.92578125 7.828125 C135.33079941 12.80830106 162.55092891 23.07002996 189.3359375 33.453125 C207.755179 40.55656299 226.56550247 46.38746987 246 50 C246.6693457 50.12858398 247.33869141 50.25716797 248.02832031 50.38964844 C250.22562132 50.81049248 252.42474578 51.21989552 254.625 51.625 C255.28177734 51.74842773 255.93855469 51.87185547 256.61523438 51.99902344 C306.60071347 60.87058585 354.83111275 46.96658071 401.10595703 29.46875 C420.14005939 22.27393643 439.1395257 15.55324139 459 11 C459.99032227 10.77086914 460.98064453 10.54173828 462.00097656 10.30566406 C478.56366544 6.50620537 494.99582596 3.76252757 511.9375 2.375 C513.12717377 2.27594864 513.12717377 2.27594864 514.34088135 2.17489624 C535.86897634 0.43434611 557.42051023 0.73919148 579 1 C579 10.57 579 20.14 579 30 C573.07740234 30.14695312 573.07740234 30.14695312 567.03515625 30.296875 C526.37594968 31.33685747 526.37594968 31.33685747 486 36 C485.11634766 36.1355127 484.23269531 36.27102539 483.32226562 36.41064453 C478.51961899 37.15032926 473.76151886 38.02468889 469 39 C468.33742188 39.12810059 467.67484375 39.25620117 466.9921875 39.38818359 C449.97815819 42.68982926 433.15374842 47.73174524 417 54 C365.67404918 73.53700486 310.50614451 90.63935815 255 81 C254.11103027 80.84934082 253.22206055 80.69868164 252.30615234 80.54345703 C222.74072214 75.39583822 195.09420151 66.06983845 167.08172607 55.62011719 C138.80649868 45.09728385 109.99501351 36.70590974 79.875 33.875 C79.04356476 33.79350708 78.21212952 33.71201416 77.35549927 33.62805176 C51.65252048 31.14670389 25.7992187 30.6945592 0 30 C0 20.1 0 10.2 0 0 Z " fill="#03B3A6" transform="translate(222,352)"/>
<path d="M0 0 C7.26 0 14.52 0 22 0 C22.33 12.87 22.66 25.74 23 39 C25.64 37.02 28.28 35.04 31 33 C37.41951327 29.7433171 44.87968021 30.13102852 51.6875 32.125 C61.88704351 36.08845897 67.56468053 43.5257634 72.06713867 53.32177734 C75.46154674 63.06704205 74.69526515 78.47031002 70.9375 88.0625 C66.08526882 97.24902757 59.48681366 103.03862855 50.125 107.3125 C41.71531119 109.16263154 32.58726012 108.43405639 24.9375 104.375 C24.298125 103.92125 23.65875 103.4675 23 103 C22.67 103.99 22.34 104.98 22 106 C14.74 106 7.48 106 0 106 C0 71.02 0 36.04 0 0 Z " fill="#243468" transform="translate(716,570)"/>
<path d="M0 0 C7.59 0 15.18 0 23 0 C23 13.2 23 26.4 23 40 C33.23 40 43.46 40 54 40 C54 26.8 54 13.6 54 0 C61.26 0 68.52 0 76 0 C76 33.66 76 67.32 76 102 C68.74 102 61.48 102 54 102 C54 87.81 54 73.62 54 59 C43.77 59 33.54 59 23 59 C23 73.19 23 87.38 23 102 C15.41 102 7.82 102 0 102 C0 68.34 0 34.68 0 0 Z " fill="#233367" transform="translate(555,574)"/>
<path d="M0 0 C-2 6 -4 12 -6 18 C-7.55847656 17.566875 -7.55847656 17.566875 -9.1484375 17.125 C-22.38318107 13.22259312 -22.38318107 13.22259312 -35.5625 15.5625 C-38.24101121 17.88557031 -38.24101121 17.88557031 -39.1875 21.4375 C-39.30217316 25.03036916 -39.30217316 25.03036916 -37.25 27.625 C-32.33686509 31.76665092 -25.85577342 33.90134577 -19.93359375 36.1796875 C-8.7173896 40.56303165 -1.21502077 45.88083071 4 57 C6.63388358 65.07939749 5.4288927 73.8213971 2.2578125 81.52734375 C-1.90540356 89.71155419 -8.57175133 94.41408762 -17.0234375 97.61328125 C-22.60153383 99.4088328 -27.99202563 99.49442395 -33.8125 99.4375 C-34.87331787 99.43137695 -35.93413574 99.42525391 -37.02709961 99.41894531 C-47.72683274 99.2050987 -55.93461567 96.76888094 -65 91 C-63.12275039 84.62267685 -61.14328358 78.29304541 -59 72 C-56.22616425 72.87594813 -53.52029273 73.7461514 -50.90234375 75.0234375 C-42.93283136 78.77536153 -34.11865356 79.51280096 -25.51953125 77.38671875 C-22.88561014 76.32771954 -21.29442861 75.58885721 -20 73 C-19.68833886 70.96177508 -19.68833886 70.96177508 -19.625 68.6875 C-19.57601562 67.92824219 -19.52703125 67.16898438 -19.4765625 66.38671875 C-20.26149462 62.80766259 -22.06320662 60.99747445 -25 59 C-28.81106552 57.1908604 -32.74149221 55.73618598 -36.6875 54.25 C-47.23515221 50.05309013 -55.87504726 46.19790174 -61.625 35.875 C-64.54667642 27.89281228 -64.49991185 18.22642305 -60.9375 10.5 C-55.79115066 1.85585334 -49.44524022 -2.62869007 -40 -6 C-25.93937187 -9.56561383 -12.77944639 -5.75294665 0 0 Z " fill="#253468" transform="translate(299,578)"/>
<path d="M0 0 C7.26 0 14.52 0 22 0 C22.33 19.47 22.66 38.94 23 59 C29.5762331 50.718734 29.5762331 50.718734 35.3203125 41.88671875 C39.14985591 35.09798271 39.14985591 35.09798271 43 33 C50.87495988 31.42059009 59.06384284 32.19918166 67 33 C63.88961631 37.86186189 60.41852778 42.29851895 56.75 46.75 C55.5947597 48.16121903 54.43981163 49.57267735 53.28515625 50.984375 C52.72586426 51.66693359 52.16657227 52.34949219 51.59033203 53.05273438 C48.35992364 57.00817456 45.1797093 61.00374904 42 65 C43.61029668 69.9071171 46.4387511 73.67925509 49.4375 77.8125 C50.516391 79.32106705 51.59449626 80.83019631 52.671875 82.33984375 C53.22166016 83.10796387 53.77144531 83.87608398 54.33789062 84.66748047 C56.98498658 88.38227993 59.59259143 92.12362241 62.1875 95.875 C62.89120728 96.88203979 62.89120728 96.88203979 63.60913086 97.90942383 C65.45931886 100.58858993 66.96459169 102.89377507 68 106 C61.68359051 106.50858477 55.38835606 106.79650644 49.05078125 106.66015625 C48.00833252 106.64090088 46.96588379 106.62164551 45.8918457 106.60180664 C42.2097803 105.83555158 40.69179551 104.37891797 38.1875 101.625 C37.4133378 100.07464367 36.64476252 98.5199533 35.95068359 96.93212891 C34.38948654 93.7592184 32.34688648 90.91973541 30.34692383 88.01049805 C27.85456962 84.36965121 25.43466958 80.67967108 23 77 C22.67 86.57 22.34 96.14 22 106 C14.74 106 7.48 106 0 106 C0 71.02 0 36.04 0 0 Z " fill="#233265" transform="translate(480,570)"/>
<path d="M0 0 C4.83927242 4.21391912 8.37124519 9.64758246 9.30235291 16.0929718 C9.43916233 18.39731392 9.49316714 20.68778534 9.51171875 22.99609375 C9.52966995 23.82963882 9.54762115 24.6631839 9.56611633 25.52198792 C9.61990295 28.16044188 9.65401231 30.79871828 9.6875 33.4375 C9.72070112 35.23635267 9.75519334 37.035182 9.79101562 38.83398438 C9.87561075 43.22252745 9.94257173 47.61102077 10 52 C11.32 52.66 12.64 53.32 14 54 C14 58.95 14 63.9 14 69 C9.58542215 71.20728892 3.80504522 70.42672543 -1 70 C-5.08030065 68.5252846 -7.67834471 65.61146378 -10 62 C-10.845625 62.763125 -11.69125 63.52625 -12.5625 64.3125 C-19.28750563 69.77947917 -24.95057805 70.62036313 -33.55078125 70.41015625 C-39.42849467 69.71122091 -43.64166141 67.59701382 -47.62109375 63.21484375 C-52.59950637 56.5722592 -52.94438109 50.05061499 -52 42 C-49.1435523 34.35646209 -43.17507575 30.32060797 -36 27 C-28.24733055 23.74846923 -20.32660388 23.34794166 -12 23 C-13.26489767 17.26103699 -13.26489767 17.26103699 -17 13 C-21.07241505 10.96379247 -25.44620888 11.49507526 -29.64453125 12.859375 C-32.11967699 13.8595803 -34.5587833 14.92031446 -37 16 C-37.99 16.33 -38.98 16.66 -40 17 C-40 17.66 -40 18.32 -40 19 C-40.66 19 -41.32 19 -42 19 C-43.62356346 17.03062339 -45.13559566 15.06654852 -46.625 13 C-47.04523438 12.42765625 -47.46546875 11.8553125 -47.8984375 11.265625 C-48.93805801 9.84796067 -49.96977591 8.42450738 -51 7 C-37.5733151 -7.04674494 -16.48615194 -11.71316585 0 0 Z " fill="#243467" transform="translate(395,607)"/>
<path d="M0 0 C6.93 0 13.86 0 21 0 C21.03738281 3.39539063 21.07476563 6.79078125 21.11328125 10.2890625 C21.15952149 13.58551393 21.21074619 16.88185295 21.26245117 20.17822266 C21.29566006 22.46526226 21.32370451 24.75238303 21.34643555 27.03955078 C21.3800551 30.33140578 21.43237624 33.62251972 21.48828125 36.9140625 C21.49467117 37.93303619 21.5010611 38.95200989 21.50764465 40.00186157 C21.62263725 45.58205956 21.78043644 50.78043644 26 55 C27.86001353 55.31755209 27.86001353 55.31755209 30.0625 55.375 C30.79597656 55.42398438 31.52945313 55.47296875 32.28515625 55.5234375 C36.5698843 54.69731727 39.91825851 53.14107748 43 50 C44.17935832 46.27615909 44.07203416 42.67360363 44 38.79296875 C44.01087646 37.71243729 44.02175293 36.63190582 44.03295898 35.51863098 C44.05911518 32.07390648 44.03027309 28.63214563 44 25.1875 C44.00809132 22.84959401 44.01976799 20.51169748 44.03515625 18.17382812 C44.06501091 12.44849755 44.04555113 6.7252072 44 1 C50.93 1 57.86 1 65 1 C65 24.76 65 48.52 65 73 C58.07 73 51.14 73 44 73 C43.505 69.535 43.505 69.535 43 66 C42.21625 66.7425 41.4325 67.485 40.625 68.25 C34.17685928 73.55046228 26.9068832 75.73440183 18.609375 75.3828125 C12.90578258 74.54605792 9.26558061 72.2374566 5.1875 68.25 C-0.23143938 60.19900435 -0.41454734 53.21565451 -0.29296875 43.75 C-0.28872391 42.49614502 -0.28447906 41.24229004 -0.28010559 39.95043945 C-0.26622169 36.64264213 -0.23934353 33.33529618 -0.20599365 30.02764893 C-0.17511574 26.64218627 -0.1615627 23.25665712 -0.14648438 19.87109375 C-0.11350252 13.24719872 -0.06176448 6.62368665 0 0 Z " fill="#223266" transform="translate(641,603)"/>
<path d="M0 0 C-0.64270983 5.9129304 -2.19003784 11.34244531 -4 17 C-4.61746094 16.7834375 -5.23492187 16.566875 -5.87109375 16.34375 C-12.20123025 14.26260923 -18.45656567 12.4106959 -24.9765625 14.69140625 C-30.33326116 17.4153445 -33.13579196 21.40737588 -35 27 C-35.69531531 34.05574064 -35.45001237 40.22995338 -31 46 C-25.15578445 50.6515185 -20.25892841 51.66392638 -13 51 C-9.59634216 50.18690396 -6.30110514 49.15779888 -3 48 C-2.32451422 50.05962852 -1.65995688 52.12284322 -1 54.1875 C-0.62875 55.33605469 -0.2575 56.48460937 0.125 57.66796875 C0.90630553 60.64320812 1.18363306 62.95283896 1 66 C-9.20704215 71.46980249 -23.05261575 72.2363582 -34.23876953 69.44042969 C-43.49159455 66.23433815 -50.56157622 60.10042928 -55.33203125 51.63671875 C-60.05818576 41.70010414 -60.8818744 29.41137329 -57.25 19 C-52.56174159 7.82658972 -45.69845376 1.43918753 -34.96484375 -3.8359375 C-23.17831894 -8.46358492 -10.50238491 -6.56399057 0 0 Z " fill="#233366" transform="translate(471,607)"/>
<path d="M0 0 C7.26 0 14.52 0 22 0 C22.33 29.04 22.66 58.08 23 88 C24.65 88.66 26.3 89.32 28 90 C28 95.28 28 100.56 28 106 C24.43559582 107.18813473 21.44525218 107.24187953 17.6875 107.3125 C16.39199219 107.34988281 15.09648437 107.38726563 13.76171875 107.42578125 C9.26864091 106.91721896 7.36285856 106.01186909 4 103 C0.10791758 97.30153422 -0.56720117 92.13105281 -0.45410156 85.37109375 C-0.45468567 84.44333633 -0.45526978 83.51557892 -0.45587158 82.55970764 C-0.45310339 79.51858003 -0.42207132 76.47845462 -0.390625 73.4375 C-0.38315811 71.31901586 -0.3774673 69.20052478 -0.37347412 67.08203125 C-0.35825313 61.52525528 -0.31900162 55.96890219 -0.2746582 50.41229248 C-0.23362925 44.73455525 -0.21544683 39.05674922 -0.1953125 33.37890625 C-0.15250396 22.25238915 -0.08218287 11.12629602 0 0 Z " fill="#233367" transform="translate(311,570)"/>
<path d="M0 0 C4.30219537 2.3511998 6.89204191 5.46436224 8.390625 10.203125 C9.7676458 17.29223207 9.72894894 24.4400057 6.01953125 30.7578125 C3.31962009 34.3751692 -0.10121311 36.59999553 -4.1875 38.375 C-10.21782007 39.23328955 -14.84636967 38.15683872 -20.1875 35.375 C-22.83304143 32.72945857 -21.59335114 25.52881225 -21.64746094 21.75683594 C-21.67402563 20.34242816 -21.71490719 18.92821259 -21.77050781 17.51464844 C-22.22615999 5.79395676 -22.22615999 5.79395676 -19.69921875 2.34179688 C-13.65422912 -2.08059028 -6.81705439 -3.0651308 0 0 Z " fill="#F8F8FA" transform="translate(759.1875,621.625)"/>
<path d="M0 0 C0.34432686 4.05540522 0.5064407 7.95386204 0 12 C-2.99541845 15.22007484 -5.86344422 16.14744029 -10.0625 17 C-14 17 -14 17 -17 15.5 C-19 13 -19 13 -19.625 9.5 C-19 6 -19 6 -17.125 3.6875 C-11.72049306 0.76906625 -6.09482558 0 0 0 Z " fill="#F5F5F7" transform="translate(383,644)"/>
<path d="M0 0 C4.71401075 -0.02304514 9.42782336 -0.04293179 14.1418457 -0.05493164 C15.74308945 -0.05993805 17.34432867 -0.06674515 18.94555664 -0.07543945 C21.25668458 -0.08766764 23.56775169 -0.09326536 25.87890625 -0.09765625 C26.58648575 -0.10281754 27.29406525 -0.10797882 28.02308655 -0.11329651 C32.46408171 -0.11378966 36.63302685 0.27923744 41 1 C41 1.33 41 1.66 41 2 C28.13 2 15.26 2 2 2 C2 10.91 2 19.82 2 29 C15.2 29 28.4 29 42 29 C42 29.33 42 29.66 42 30 C28.14 30 14.28 30 0 30 C0 20.1 0 10.2 0 0 Z " fill="#2BB8AD" transform="translate(222,352)"/>
<path d="M0 0 C0.99 0.33 1.98 0.66 3 1 C2.67 9.58 2.34 18.16 2 27 C4.083125 26.979375 6.16625 26.95875 8.3125 26.9375 C20.54840789 26.88247398 32.77725036 27.4956372 45 28 C45 28.66 45 29.32 45 30 C38.75188831 29.88269497 32.50396027 29.75785931 26.25610352 29.62768555 C24.12885993 29.58426577 22.0015799 29.54259607 19.87426758 29.50268555 C16.82361849 29.44515293 13.77315411 29.38141033 10.72265625 29.31640625 C9.76537125 29.29969376 8.80808624 29.28298126 7.8217926 29.26576233 C6.94095505 29.24581711 6.06011749 29.22587189 5.15258789 29.20532227 C4.37315323 29.18977798 3.59371857 29.1742337 2.79066467 29.15821838 C1 29 1 29 0 28 C-0.08767112 25.92737924 -0.10695873 23.85179706 -0.09765625 21.77734375 C-0.09443359 20.51728516 -0.09121094 19.25722656 -0.08789062 17.95898438 C-0.07953403 16.61848891 -0.07106907 15.27799412 -0.0625 13.9375 C-0.0574866 12.59310058 -0.05292342 11.2486994 -0.04882812 9.90429688 C-0.03699488 6.60282059 -0.02050971 3.30143197 0 0 Z " fill="#F6C24D" transform="translate(222,414)"/>
<path d="M0 0 C-1 3 -1 3 -4.0625 4.6875 C-5.031875 5.120625 -6.00125 5.55375 -7 6 C-7 5.01 -7 4.02 -7 3 C-2.77777778 0 -2.77777778 0 0 0 Z " fill="#2B3A66" transform="translate(749,603)"/>
</svg>
